<mxfile host="app.diagrams.net" agent="Mozilla/5.0 (Macintosh; Intel Mac OS X 10.15; rv:135.0) Gecko/20100101 Firefox/135.0" version="26.0.11">
  <diagram name="Page-1" id="jlNaeUJ58-j6CCFF46g7">
    <mxGraphModel dx="2440" dy="1328" grid="1" gridSize="10" guides="1" tooltips="1" connect="1" arrows="1" fold="1" page="1" pageScale="1" pageWidth="1169" pageHeight="827" math="0" shadow="0">
      <root>
        <mxCell id="0" />
        <mxCell id="1" parent="0" />
        <mxCell id="HLjWQWwi_whhqIadVQS3-2" value="F" style="rounded=0;whiteSpace=wrap;html=1;fillColor=#f5f5f5;fontColor=#333333;strokeColor=#666666;" parent="1" vertex="1">
          <mxGeometry x="240" y="80" width="120" height="360" as="geometry" />
        </mxCell>
        <mxCell id="HLjWQWwi_whhqIadVQS3-3" value="F" style="rounded=0;whiteSpace=wrap;html=1;fillColor=#f5f5f5;fontColor=#333333;strokeColor=#666666;" parent="1" vertex="1">
          <mxGeometry x="840" y="80" width="120" height="360" as="geometry" />
        </mxCell>
        <mxCell id="HLjWQWwi_whhqIadVQS3-4" value="1" style="whiteSpace=wrap;html=1;aspect=fixed;" parent="1" vertex="1">
          <mxGeometry x="400" y="80" width="40" height="40" as="geometry" />
        </mxCell>
        <mxCell id="HLjWQWwi_whhqIadVQS3-5" value="2" style="whiteSpace=wrap;html=1;aspect=fixed;" parent="1" vertex="1">
          <mxGeometry x="400" y="120" width="40" height="40" as="geometry" />
        </mxCell>
        <mxCell id="HLjWQWwi_whhqIadVQS3-6" value="3" style="whiteSpace=wrap;html=1;aspect=fixed;" parent="1" vertex="1">
          <mxGeometry x="400" y="160" width="40" height="40" as="geometry" />
        </mxCell>
        <mxCell id="HLjWQWwi_whhqIadVQS3-7" value="4" style="whiteSpace=wrap;html=1;aspect=fixed;" parent="1" vertex="1">
          <mxGeometry x="400" y="200" width="40" height="40" as="geometry" />
        </mxCell>
        <mxCell id="HLjWQWwi_whhqIadVQS3-8" value="5" style="whiteSpace=wrap;html=1;aspect=fixed;" parent="1" vertex="1">
          <mxGeometry x="400" y="240" width="40" height="40" as="geometry" />
        </mxCell>
        <mxCell id="HLjWQWwi_whhqIadVQS3-9" value="7" style="whiteSpace=wrap;html=1;aspect=fixed;" parent="1" vertex="1">
          <mxGeometry x="400" y="320" width="40" height="40" as="geometry" />
        </mxCell>
        <mxCell id="HLjWQWwi_whhqIadVQS3-10" value="6" style="whiteSpace=wrap;html=1;aspect=fixed;" parent="1" vertex="1">
          <mxGeometry x="400" y="280" width="40" height="40" as="geometry" />
        </mxCell>
        <mxCell id="HLjWQWwi_whhqIadVQS3-11" value="9" style="whiteSpace=wrap;html=1;aspect=fixed;" parent="1" vertex="1">
          <mxGeometry x="400" y="400" width="40" height="40" as="geometry" />
        </mxCell>
        <mxCell id="HLjWQWwi_whhqIadVQS3-12" value="8" style="whiteSpace=wrap;html=1;aspect=fixed;" parent="1" vertex="1">
          <mxGeometry x="400" y="360" width="40" height="40" as="geometry" />
        </mxCell>
        <mxCell id="HLjWQWwi_whhqIadVQS3-14" value="1" style="whiteSpace=wrap;html=1;aspect=fixed;" parent="1" vertex="1">
          <mxGeometry x="760" y="80" width="40" height="40" as="geometry" />
        </mxCell>
        <mxCell id="HLjWQWwi_whhqIadVQS3-15" value="2" style="whiteSpace=wrap;html=1;aspect=fixed;" parent="1" vertex="1">
          <mxGeometry x="760" y="120" width="40" height="40" as="geometry" />
        </mxCell>
        <mxCell id="HLjWQWwi_whhqIadVQS3-16" value="3" style="whiteSpace=wrap;html=1;aspect=fixed;" parent="1" vertex="1">
          <mxGeometry x="760" y="160" width="40" height="40" as="geometry" />
        </mxCell>
        <mxCell id="HLjWQWwi_whhqIadVQS3-17" value="4" style="whiteSpace=wrap;html=1;aspect=fixed;" parent="1" vertex="1">
          <mxGeometry x="760" y="200" width="40" height="40" as="geometry" />
        </mxCell>
        <mxCell id="HLjWQWwi_whhqIadVQS3-18" value="5" style="whiteSpace=wrap;html=1;aspect=fixed;" parent="1" vertex="1">
          <mxGeometry x="760" y="240" width="40" height="40" as="geometry" />
        </mxCell>
        <mxCell id="HLjWQWwi_whhqIadVQS3-19" value="7" style="whiteSpace=wrap;html=1;aspect=fixed;" parent="1" vertex="1">
          <mxGeometry x="760" y="320" width="40" height="40" as="geometry" />
        </mxCell>
        <mxCell id="HLjWQWwi_whhqIadVQS3-20" value="6" style="whiteSpace=wrap;html=1;aspect=fixed;" parent="1" vertex="1">
          <mxGeometry x="760" y="280" width="40" height="40" as="geometry" />
        </mxCell>
        <mxCell id="HLjWQWwi_whhqIadVQS3-21" value="9" style="whiteSpace=wrap;html=1;aspect=fixed;" parent="1" vertex="1">
          <mxGeometry x="760" y="400" width="40" height="40" as="geometry" />
        </mxCell>
        <mxCell id="HLjWQWwi_whhqIadVQS3-22" value="8" style="whiteSpace=wrap;html=1;aspect=fixed;" parent="1" vertex="1">
          <mxGeometry x="760" y="360" width="40" height="40" as="geometry" />
        </mxCell>
        <mxCell id="HLjWQWwi_whhqIadVQS3-23" value="" style="edgeStyle=none;orthogonalLoop=1;jettySize=auto;html=1;rounded=0;jumpStyle=arc;endArrow=oval;startFill=1;strokeWidth=2;endFill=1;startArrow=oval;exitX=1;exitY=0.5;exitDx=0;exitDy=0;entryX=0;entryY=0.5;entryDx=0;entryDy=0;strokeColor=light-dark(#0432ff, transparent);" parent="1" source="HLjWQWwi_whhqIadVQS3-4" target="HLjWQWwi_whhqIadVQS3-17" edge="1">
          <mxGeometry width="80" relative="1" as="geometry">
            <mxPoint x="480" y="500" as="sourcePoint" />
            <mxPoint x="560" y="500" as="targetPoint" />
            <Array as="points">
              <mxPoint x="480" y="100" />
              <mxPoint x="720" y="220" />
            </Array>
          </mxGeometry>
        </mxCell>
        <mxCell id="HLjWQWwi_whhqIadVQS3-24" value="" style="edgeStyle=none;orthogonalLoop=1;jettySize=auto;html=1;rounded=0;strokeColor=#FF0000;strokeWidth=2;align=center;verticalAlign=middle;fontFamily=Helvetica;fontSize=11;fontColor=default;labelBackgroundColor=default;jumpStyle=arc;startArrow=oval;startFill=1;endArrow=oval;endFill=1;exitX=1;exitY=0.5;exitDx=0;exitDy=0;entryX=0;entryY=0.5;entryDx=0;entryDy=0;" parent="1" source="HLjWQWwi_whhqIadVQS3-5" target="HLjWQWwi_whhqIadVQS3-16" edge="1">
          <mxGeometry width="80" relative="1" as="geometry">
            <mxPoint x="610" y="340" as="sourcePoint" />
            <mxPoint x="690" y="340" as="targetPoint" />
            <Array as="points">
              <mxPoint x="480" y="140" />
              <mxPoint x="720" y="180" />
            </Array>
          </mxGeometry>
        </mxCell>
        <mxCell id="HLjWQWwi_whhqIadVQS3-25" value="" style="edgeStyle=none;orthogonalLoop=1;jettySize=auto;html=1;rounded=0;strokeColor=#00CC00;strokeWidth=2;align=center;verticalAlign=middle;fontFamily=Helvetica;fontSize=11;fontColor=default;labelBackgroundColor=default;jumpStyle=arc;startArrow=oval;startFill=1;endArrow=oval;endFill=1;exitX=1;exitY=0.5;exitDx=0;exitDy=0;entryX=0;entryY=0.5;entryDx=0;entryDy=0;" parent="1" source="HLjWQWwi_whhqIadVQS3-6" target="HLjWQWwi_whhqIadVQS3-15" edge="1">
          <mxGeometry width="80" relative="1" as="geometry">
            <mxPoint x="580" y="230" as="sourcePoint" />
            <mxPoint x="660" y="230" as="targetPoint" />
            <Array as="points">
              <mxPoint x="480" y="180" />
              <mxPoint x="720" y="140" />
            </Array>
          </mxGeometry>
        </mxCell>
        <mxCell id="HLjWQWwi_whhqIadVQS3-26" value="" style="edgeStyle=none;orthogonalLoop=1;jettySize=auto;html=1;rounded=0;strokeColor=#6600CC;strokeWidth=2;align=center;verticalAlign=middle;fontFamily=Helvetica;fontSize=11;fontColor=default;labelBackgroundColor=default;jumpStyle=arc;startArrow=oval;startFill=1;endArrow=oval;endFill=1;exitX=1;exitY=0.5;exitDx=0;exitDy=0;entryX=0;entryY=0.5;entryDx=0;entryDy=0;" parent="1" source="HLjWQWwi_whhqIadVQS3-7" target="HLjWQWwi_whhqIadVQS3-14" edge="1">
          <mxGeometry width="80" relative="1" as="geometry">
            <mxPoint x="580" y="270" as="sourcePoint" />
            <mxPoint x="660" y="270" as="targetPoint" />
            <Array as="points">
              <mxPoint x="480" y="220" />
              <mxPoint x="720" y="100" />
            </Array>
          </mxGeometry>
        </mxCell>
        <mxCell id="HLjWQWwi_whhqIadVQS3-27" value="" style="edgeStyle=none;orthogonalLoop=1;jettySize=auto;html=1;rounded=0;strokeColor=default;strokeWidth=2;align=center;verticalAlign=middle;fontFamily=Helvetica;fontSize=11;fontColor=default;labelBackgroundColor=default;jumpStyle=arc;startArrow=oval;startFill=1;endArrow=oval;endFill=1;exitX=1;exitY=0.5;exitDx=0;exitDy=0;entryX=0;entryY=0.5;entryDx=0;entryDy=0;" parent="1" source="HLjWQWwi_whhqIadVQS3-8" target="HLjWQWwi_whhqIadVQS3-18" edge="1">
          <mxGeometry width="80" relative="1" as="geometry">
            <mxPoint x="600" y="360" as="sourcePoint" />
            <mxPoint x="680" y="360" as="targetPoint" />
            <Array as="points" />
          </mxGeometry>
        </mxCell>
        <mxCell id="HLjWQWwi_whhqIadVQS3-28" value="" style="edgeStyle=none;orthogonalLoop=1;jettySize=auto;html=1;rounded=0;strokeColor=#0000FF;strokeWidth=2;align=center;verticalAlign=middle;fontFamily=Helvetica;fontSize=11;fontColor=default;labelBackgroundColor=default;jumpStyle=arc;startArrow=oval;startFill=1;endArrow=oval;endFill=1;exitX=1;exitY=0.5;exitDx=0;exitDy=0;entryX=0;entryY=0.5;entryDx=0;entryDy=0;" parent="1" source="HLjWQWwi_whhqIadVQS3-10" target="HLjWQWwi_whhqIadVQS3-17" edge="1">
          <mxGeometry width="80" relative="1" as="geometry">
            <mxPoint x="680" y="350" as="sourcePoint" />
            <mxPoint x="760" y="350" as="targetPoint" />
            <Array as="points">
              <mxPoint x="480" y="300" />
              <mxPoint x="720" y="220" />
            </Array>
          </mxGeometry>
        </mxCell>
        <mxCell id="HLjWQWwi_whhqIadVQS3-29" value="" style="edgeStyle=none;orthogonalLoop=1;jettySize=auto;html=1;rounded=0;strokeColor=#FF8000;strokeWidth=2;align=center;verticalAlign=middle;fontFamily=Helvetica;fontSize=11;fontColor=default;labelBackgroundColor=default;jumpStyle=arc;startArrow=oval;startFill=1;endArrow=oval;endFill=1;exitX=1;exitY=0.5;exitDx=0;exitDy=0;entryX=0;entryY=0.5;entryDx=0;entryDy=0;" parent="1" source="HLjWQWwi_whhqIadVQS3-9" target="HLjWQWwi_whhqIadVQS3-22" edge="1">
          <mxGeometry width="80" relative="1" as="geometry">
            <mxPoint x="690" y="440" as="sourcePoint" />
            <mxPoint x="770" y="440" as="targetPoint" />
            <Array as="points">
              <mxPoint x="480" y="340" />
              <mxPoint x="720" y="380" />
            </Array>
          </mxGeometry>
        </mxCell>
        <mxCell id="HLjWQWwi_whhqIadVQS3-30" value="" style="edgeStyle=none;orthogonalLoop=1;jettySize=auto;html=1;rounded=0;strokeColor=#6666FF;strokeWidth=2;align=center;verticalAlign=middle;fontFamily=Helvetica;fontSize=11;fontColor=default;labelBackgroundColor=default;jumpStyle=arc;startArrow=oval;startFill=1;endArrow=oval;endFill=1;exitX=1;exitY=0.5;exitDx=0;exitDy=0;entryX=0;entryY=0.5;entryDx=0;entryDy=0;" parent="1" source="HLjWQWwi_whhqIadVQS3-12" target="HLjWQWwi_whhqIadVQS3-19" edge="1">
          <mxGeometry width="80" relative="1" as="geometry">
            <mxPoint x="700" y="480" as="sourcePoint" />
            <mxPoint x="780" y="480" as="targetPoint" />
            <Array as="points">
              <mxPoint x="480" y="380" />
              <mxPoint x="720" y="340" />
            </Array>
          </mxGeometry>
        </mxCell>
        <mxCell id="HLjWQWwi_whhqIadVQS3-32" value="" style="edgeStyle=none;orthogonalLoop=1;jettySize=auto;html=1;rounded=0;strokeColor=#6600CC;strokeWidth=2;align=center;verticalAlign=middle;fontFamily=Helvetica;fontSize=11;fontColor=default;labelBackgroundColor=default;jumpStyle=arc;startArrow=oval;startFill=1;endArrow=oval;endFill=1;entryX=0;entryY=0.5;entryDx=0;entryDy=0;exitX=1;exitY=0.5;exitDx=0;exitDy=0;" parent="1" source="HLjWQWwi_whhqIadVQS3-7" target="HLjWQWwi_whhqIadVQS3-20" edge="1">
          <mxGeometry width="80" relative="1" as="geometry">
            <mxPoint x="490" y="550" as="sourcePoint" />
            <mxPoint x="570" y="550" as="targetPoint" />
            <Array as="points">
              <mxPoint x="480" y="220" />
              <mxPoint x="720" y="300" />
            </Array>
          </mxGeometry>
        </mxCell>
        <mxCell id="HLjWQWwi_whhqIadVQS3-46" value="DSR" style="edgeLabel;html=1;align=center;verticalAlign=middle;resizable=0;points=[];fontFamily=Helvetica;fontSize=11;fontColor=default;labelBackgroundColor=default;" parent="HLjWQWwi_whhqIadVQS3-32" vertex="1" connectable="0">
          <mxGeometry x="0.8068" y="-1" relative="1" as="geometry">
            <mxPoint x="-320" y="-1" as="offset" />
          </mxGeometry>
        </mxCell>
        <mxCell id="HLjWQWwi_whhqIadVQS3-47" value="" style="edgeStyle=none;orthogonalLoop=1;jettySize=auto;html=1;rounded=0;strokeColor=default;strokeWidth=2;align=center;verticalAlign=middle;fontFamily=Helvetica;fontSize=11;fontColor=default;labelBackgroundColor=default;jumpStyle=arc;startArrow=oval;startFill=1;endArrow=oval;endFill=1;exitX=1;exitY=0.5;exitDx=0;exitDy=0;" parent="1" edge="1" source="HLjWQWwi_whhqIadVQS3-11">
          <mxGeometry width="80" relative="1" as="geometry">
            <mxPoint x="470" y="410" as="sourcePoint" />
            <mxPoint x="520" y="420" as="targetPoint" />
            <Array as="points" />
          </mxGeometry>
        </mxCell>
        <mxCell id="HLjWQWwi_whhqIadVQS3-48" value="" style="edgeStyle=none;orthogonalLoop=1;jettySize=auto;html=1;rounded=0;strokeColor=default;strokeWidth=2;align=center;verticalAlign=middle;fontFamily=Helvetica;fontSize=11;fontColor=default;labelBackgroundColor=default;jumpStyle=arc;startArrow=oval;startFill=1;endArrow=oval;endFill=1;" parent="1" edge="1">
          <mxGeometry width="80" relative="1" as="geometry">
            <mxPoint x="680" y="419.74" as="sourcePoint" />
            <mxPoint x="760" y="419.74" as="targetPoint" />
            <Array as="points" />
          </mxGeometry>
        </mxCell>
        <mxCell id="HLjWQWwi_whhqIadVQS3-56" value="&quot;Classic&quot; RS232 Null Modem Cable" style="text;strokeColor=none;align=center;fillColor=none;html=1;verticalAlign=middle;whiteSpace=wrap;rounded=0;fontFamily=Helvetica;fontSize=11;fontColor=default;labelBackgroundColor=default;" parent="1" vertex="1">
          <mxGeometry x="510" y="10" width="190" height="30" as="geometry" />
        </mxCell>
        <mxCell id="HLjWQWwi_whhqIadVQS3-58" value="CD" style="text;strokeColor=none;align=left;fillColor=none;html=1;verticalAlign=middle;whiteSpace=wrap;rounded=0;fontFamily=Helvetica;fontSize=11;fontColor=default;labelBackgroundColor=default;spacing=0;fontStyle=1" parent="1" vertex="1">
          <mxGeometry x="240" y="480" width="40" height="20" as="geometry" />
        </mxCell>
        <mxCell id="HLjWQWwi_whhqIadVQS3-59" value="RXD" style="text;strokeColor=none;align=left;fillColor=none;html=1;verticalAlign=middle;whiteSpace=wrap;rounded=0;fontFamily=Helvetica;fontSize=11;fontColor=default;labelBackgroundColor=default;spacing=0;fontStyle=1" parent="1" vertex="1">
          <mxGeometry x="240" y="500" width="40" height="20" as="geometry" />
        </mxCell>
        <mxCell id="HLjWQWwi_whhqIadVQS3-60" value="TXD" style="text;strokeColor=none;align=left;fillColor=none;html=1;verticalAlign=middle;whiteSpace=wrap;rounded=0;fontFamily=Helvetica;fontSize=11;fontColor=default;labelBackgroundColor=default;spacing=0;fontStyle=1" parent="1" vertex="1">
          <mxGeometry x="240" y="520" width="40" height="20" as="geometry" />
        </mxCell>
        <mxCell id="HLjWQWwi_whhqIadVQS3-61" value="DTR" style="text;strokeColor=none;align=left;fillColor=none;html=1;verticalAlign=middle;whiteSpace=wrap;rounded=0;fontFamily=Helvetica;fontSize=11;fontColor=default;labelBackgroundColor=default;spacing=0;fontStyle=1" parent="1" vertex="1">
          <mxGeometry x="240" y="540" width="40" height="20" as="geometry" />
        </mxCell>
        <mxCell id="HLjWQWwi_whhqIadVQS3-62" value="GND" style="text;strokeColor=none;align=left;fillColor=none;html=1;verticalAlign=middle;whiteSpace=wrap;rounded=0;fontFamily=Helvetica;fontSize=11;fontColor=default;labelBackgroundColor=default;spacing=0;fontStyle=1" parent="1" vertex="1">
          <mxGeometry x="240" y="560" width="40" height="20" as="geometry" />
        </mxCell>
        <mxCell id="HLjWQWwi_whhqIadVQS3-63" value="DSR" style="text;strokeColor=none;align=left;fillColor=none;html=1;verticalAlign=middle;whiteSpace=wrap;rounded=0;fontFamily=Helvetica;fontSize=11;fontColor=default;labelBackgroundColor=default;spacing=0;fontStyle=1" parent="1" vertex="1">
          <mxGeometry x="240" y="580" width="40" height="20" as="geometry" />
        </mxCell>
        <mxCell id="HLjWQWwi_whhqIadVQS3-64" value="RTS" style="text;strokeColor=none;align=left;fillColor=none;html=1;verticalAlign=middle;whiteSpace=wrap;rounded=0;fontFamily=Helvetica;fontSize=11;fontColor=default;labelBackgroundColor=default;spacing=0;fontStyle=1" parent="1" vertex="1">
          <mxGeometry x="240" y="600" width="40" height="20" as="geometry" />
        </mxCell>
        <mxCell id="HLjWQWwi_whhqIadVQS3-65" value="CTS" style="text;strokeColor=none;align=left;fillColor=none;html=1;verticalAlign=middle;whiteSpace=wrap;rounded=0;fontFamily=Helvetica;fontSize=11;fontColor=default;labelBackgroundColor=default;spacing=0;fontStyle=1" parent="1" vertex="1">
          <mxGeometry x="240" y="620" width="40" height="20" as="geometry" />
        </mxCell>
        <mxCell id="HLjWQWwi_whhqIadVQS3-66" value="RI" style="text;strokeColor=none;align=left;fillColor=none;html=1;verticalAlign=middle;whiteSpace=wrap;rounded=0;fontFamily=Helvetica;fontSize=11;fontColor=default;labelBackgroundColor=default;spacing=0;fontStyle=1" parent="1" vertex="1">
          <mxGeometry x="240" y="640" width="40" height="20" as="geometry" />
        </mxCell>
        <mxCell id="HLjWQWwi_whhqIadVQS3-67" value="Carrier Detect" style="text;strokeColor=none;align=left;fillColor=none;html=1;verticalAlign=middle;whiteSpace=wrap;rounded=0;fontFamily=Helvetica;fontSize=11;fontColor=default;labelBackgroundColor=default;spacing=0;" parent="1" vertex="1">
          <mxGeometry x="280" y="480" width="120" height="20" as="geometry" />
        </mxCell>
        <mxCell id="HLjWQWwi_whhqIadVQS3-68" value="Receive Data" style="text;strokeColor=none;align=left;fillColor=none;html=1;verticalAlign=middle;whiteSpace=wrap;rounded=0;fontFamily=Helvetica;fontSize=11;fontColor=default;labelBackgroundColor=default;spacing=0;" parent="1" vertex="1">
          <mxGeometry x="280" y="500" width="120" height="20" as="geometry" />
        </mxCell>
        <mxCell id="HLjWQWwi_whhqIadVQS3-69" value="Transmit Data" style="text;strokeColor=none;align=left;fillColor=none;html=1;verticalAlign=middle;whiteSpace=wrap;rounded=0;fontFamily=Helvetica;fontSize=11;fontColor=default;labelBackgroundColor=default;spacing=0;" parent="1" vertex="1">
          <mxGeometry x="280" y="520" width="120" height="20" as="geometry" />
        </mxCell>
        <mxCell id="HLjWQWwi_whhqIadVQS3-70" value="Data Terminal Ready" style="text;strokeColor=none;align=left;fillColor=none;html=1;verticalAlign=middle;whiteSpace=wrap;rounded=0;fontFamily=Helvetica;fontSize=11;fontColor=default;labelBackgroundColor=default;spacing=0;" parent="1" vertex="1">
          <mxGeometry x="280" y="540" width="120" height="20" as="geometry" />
        </mxCell>
        <mxCell id="HLjWQWwi_whhqIadVQS3-71" value="Ground" style="text;strokeColor=none;align=left;fillColor=none;html=1;verticalAlign=middle;whiteSpace=wrap;rounded=0;fontFamily=Helvetica;fontSize=11;fontColor=default;labelBackgroundColor=default;spacing=0;" parent="1" vertex="1">
          <mxGeometry x="280" y="560" width="120" height="20" as="geometry" />
        </mxCell>
        <mxCell id="HLjWQWwi_whhqIadVQS3-72" value="Data Set Ready" style="text;strokeColor=none;align=left;fillColor=none;html=1;verticalAlign=middle;whiteSpace=wrap;rounded=0;fontFamily=Helvetica;fontSize=11;fontColor=default;labelBackgroundColor=default;spacing=0;" parent="1" vertex="1">
          <mxGeometry x="280" y="580" width="120" height="20" as="geometry" />
        </mxCell>
        <mxCell id="HLjWQWwi_whhqIadVQS3-73" value="Request To Send" style="text;strokeColor=none;align=left;fillColor=none;html=1;verticalAlign=middle;whiteSpace=wrap;rounded=0;fontFamily=Helvetica;fontSize=11;fontColor=default;labelBackgroundColor=default;spacing=0;" parent="1" vertex="1">
          <mxGeometry x="280" y="600" width="120" height="20" as="geometry" />
        </mxCell>
        <mxCell id="HLjWQWwi_whhqIadVQS3-74" value="Clear To Send" style="text;strokeColor=none;align=left;fillColor=none;html=1;verticalAlign=middle;whiteSpace=wrap;rounded=0;fontFamily=Helvetica;fontSize=11;fontColor=default;labelBackgroundColor=default;spacing=0;" parent="1" vertex="1">
          <mxGeometry x="280" y="620" width="120" height="20" as="geometry" />
        </mxCell>
        <mxCell id="HLjWQWwi_whhqIadVQS3-75" value="Ring Indicator" style="text;strokeColor=none;align=left;fillColor=none;html=1;verticalAlign=middle;whiteSpace=wrap;rounded=0;fontFamily=Helvetica;fontSize=11;fontColor=default;labelBackgroundColor=default;spacing=0;" parent="1" vertex="1">
          <mxGeometry x="280" y="640" width="120" height="20" as="geometry" />
        </mxCell>
        <mxCell id="21KtwQQgOQiGFJad7EfL-1" value="CD" style="whiteSpace=wrap;html=1;aspect=fixed;fillColor=#dae8fc;strokeColor=#6c8ebf;" vertex="1" parent="1">
          <mxGeometry x="360" y="80" width="40" height="40" as="geometry" />
        </mxCell>
        <mxCell id="21KtwQQgOQiGFJad7EfL-2" value="RXD" style="whiteSpace=wrap;html=1;aspect=fixed;fillColor=#dae8fc;strokeColor=#6c8ebf;" vertex="1" parent="1">
          <mxGeometry x="360" y="120" width="40" height="40" as="geometry" />
        </mxCell>
        <mxCell id="21KtwQQgOQiGFJad7EfL-3" value="TXD" style="whiteSpace=wrap;html=1;aspect=fixed;fillColor=#dae8fc;strokeColor=#6c8ebf;" vertex="1" parent="1">
          <mxGeometry x="360" y="160" width="40" height="40" as="geometry" />
        </mxCell>
        <mxCell id="21KtwQQgOQiGFJad7EfL-4" value="DTR" style="whiteSpace=wrap;html=1;aspect=fixed;fillColor=#dae8fc;strokeColor=#6c8ebf;" vertex="1" parent="1">
          <mxGeometry x="360" y="200" width="40" height="40" as="geometry" />
        </mxCell>
        <mxCell id="21KtwQQgOQiGFJad7EfL-5" value="GND" style="whiteSpace=wrap;html=1;aspect=fixed;fillColor=#dae8fc;strokeColor=#6c8ebf;" vertex="1" parent="1">
          <mxGeometry x="360" y="240" width="40" height="40" as="geometry" />
        </mxCell>
        <mxCell id="21KtwQQgOQiGFJad7EfL-6" value="RTS" style="whiteSpace=wrap;html=1;aspect=fixed;fillColor=#dae8fc;strokeColor=#6c8ebf;" vertex="1" parent="1">
          <mxGeometry x="360" y="320" width="40" height="40" as="geometry" />
        </mxCell>
        <mxCell id="21KtwQQgOQiGFJad7EfL-7" value="DSR" style="whiteSpace=wrap;html=1;aspect=fixed;fillColor=#dae8fc;strokeColor=#6c8ebf;" vertex="1" parent="1">
          <mxGeometry x="360" y="280" width="40" height="40" as="geometry" />
        </mxCell>
        <mxCell id="21KtwQQgOQiGFJad7EfL-8" value="RI" style="whiteSpace=wrap;html=1;aspect=fixed;fillColor=#dae8fc;strokeColor=#6c8ebf;" vertex="1" parent="1">
          <mxGeometry x="360" y="400" width="40" height="40" as="geometry" />
        </mxCell>
        <mxCell id="21KtwQQgOQiGFJad7EfL-9" value="CTS" style="whiteSpace=wrap;html=1;aspect=fixed;fillColor=#dae8fc;strokeColor=#6c8ebf;" vertex="1" parent="1">
          <mxGeometry x="360" y="360" width="40" height="40" as="geometry" />
        </mxCell>
        <mxCell id="21KtwQQgOQiGFJad7EfL-10" value="CD" style="whiteSpace=wrap;html=1;aspect=fixed;fillColor=#dae8fc;strokeColor=#6c8ebf;" vertex="1" parent="1">
          <mxGeometry x="800" y="80" width="40" height="40" as="geometry" />
        </mxCell>
        <mxCell id="21KtwQQgOQiGFJad7EfL-11" value="RXD" style="whiteSpace=wrap;html=1;aspect=fixed;fillColor=#dae8fc;strokeColor=#6c8ebf;" vertex="1" parent="1">
          <mxGeometry x="800" y="120" width="40" height="40" as="geometry" />
        </mxCell>
        <mxCell id="21KtwQQgOQiGFJad7EfL-12" value="TXD" style="whiteSpace=wrap;html=1;aspect=fixed;fillColor=#dae8fc;strokeColor=#6c8ebf;" vertex="1" parent="1">
          <mxGeometry x="800" y="160" width="40" height="40" as="geometry" />
        </mxCell>
        <mxCell id="21KtwQQgOQiGFJad7EfL-13" value="DTR" style="whiteSpace=wrap;html=1;aspect=fixed;fillColor=#dae8fc;strokeColor=#6c8ebf;" vertex="1" parent="1">
          <mxGeometry x="800" y="200" width="40" height="40" as="geometry" />
        </mxCell>
        <mxCell id="21KtwQQgOQiGFJad7EfL-14" value="GND" style="whiteSpace=wrap;html=1;aspect=fixed;fillColor=#dae8fc;strokeColor=#6c8ebf;" vertex="1" parent="1">
          <mxGeometry x="800" y="240" width="40" height="40" as="geometry" />
        </mxCell>
        <mxCell id="21KtwQQgOQiGFJad7EfL-15" value="RTS" style="whiteSpace=wrap;html=1;aspect=fixed;fillColor=#dae8fc;strokeColor=#6c8ebf;" vertex="1" parent="1">
          <mxGeometry x="800" y="320" width="40" height="40" as="geometry" />
        </mxCell>
        <mxCell id="21KtwQQgOQiGFJad7EfL-16" value="DSR" style="whiteSpace=wrap;html=1;aspect=fixed;fillColor=#dae8fc;strokeColor=#6c8ebf;" vertex="1" parent="1">
          <mxGeometry x="800" y="280" width="40" height="40" as="geometry" />
        </mxCell>
        <mxCell id="21KtwQQgOQiGFJad7EfL-17" value="RI" style="whiteSpace=wrap;html=1;aspect=fixed;fillColor=#dae8fc;strokeColor=#6c8ebf;" vertex="1" parent="1">
          <mxGeometry x="800" y="400" width="40" height="40" as="geometry" />
        </mxCell>
        <mxCell id="21KtwQQgOQiGFJad7EfL-18" value="CTS" style="whiteSpace=wrap;html=1;aspect=fixed;fillColor=#dae8fc;strokeColor=#6c8ebf;" vertex="1" parent="1">
          <mxGeometry x="800" y="360" width="40" height="40" as="geometry" />
        </mxCell>
      </root>
    </mxGraphModel>
  </diagram>
</mxfile>
